<svg width="48" height="48" xmlns="http://www.w3.org/2000/svg" fill="none"><g><path id="svg_4" fill="#fff" d="m48,0l0,7.722c0,8.89 -7.14,16.112 -16.002,16.255l-0.269,0.003l-7.729,0l0,7.742c0,9.145 -7.26,16.278 -16.205,16.278l-7.795,0l0,-7.952l0,-17.288c0,-12.57 10.2,-22.76 22.78,-22.76l25.22,0z"/><path id="svg_5" fill-opacity="0.8" fill="#242265" d="m37.696,0l10.304,0l0,7.722c0,9.145 -7.26,16.278 -16.205,16.278l-7.795,0l0,-7.945c0,-8.103 5.933,-14.821 13.696,-16.055z" clip-rule="evenodd" fill-rule="evenodd"/><path id="svg_6" fill-opacity="0.8" fill="#616EE1" d="m48,0l0,7.722c0,8.89 -7.14,16.112  -16.002,16.255l-0.269,0.003l-7.729,0l0,7.742c0,9.145 -7.26,16.278 -16.205,16.278l-7.795,0l0,-7.952l0,-17.288c0,-12.57 10.2,-22.76 22.78,-22.76l25.22,0z"/></g></svg>
